<svg xmlns="http://www.w3.org/2000/svg" viewBox="0 0 654 3828" width="654" height="3828" font-family="'IBM Plex Mono', ui-monospace, monospace" role="img" aria-label="Concurrency braid of the git log — 5 sessions live at once, 19 distinct across the window"><defs><style>.warp{stroke:#2a2f3a;stroke-width:1}.rail{stroke:#3d4657;stroke-width:2;fill:none;opacity:.55}.rail-hot{stroke:#e8b04b;stroke-width:2.5;fill:none;opacity:1}.glyph{font-size:13px;fill:#c9d2e0;text-anchor:middle;dominant-baseline:central}.glyph-hot{fill:#f4e6c8;font-weight:600}.lab{font-size:11px;fill:#7a8598}.lab-hot{fill:#e8b04b}.leader{stroke:#3d4657;stroke-width:.6;fill:none;opacity:.5}.leader-hot{stroke:#e8b04b;stroke-width:.8;fill:none;opacity:.7}.head{font-size:12px;fill:#8b95a7;letter-spacing:.08em}.ink{font-size:64px;fill:#e8b04b;font-weight:700}.ink-u{font-size:13px;fill:#8b95a7;letter-spacing:.12em}</style></defs><rect x="0" y="0" width="654" height="3828" fill="#12151c"/><text x="8" y="58" class="ink">5</text><text x="8" y="82" class="ink-u">SESSIONS LIVE AT ONCE &#183; DERIVED</text><text x="8" y="102" class="head">window: 510 commits (frozen witness) &#183; 19 distinct &#183; 42 interleave switches</text><line class="warp" x1="160" y1="118" x2="614" y2="118"/><line class="warp" x1="160" y1="293" x2="614" y2="293"/><line class="warp" x1="160" y1="468" x2="614" y2="468"/><line class="warp" x1="160" y1="643" x2="614" y2="643"/><line class="warp" x1="160" y1="818" x2="614" y2="818"/><line class="warp" x1="160" y1="993" x2="614" y2="993"/><line class="warp" x1="160" y1="1168" x2="614" y2="1168"/><line class="warp" x1="160" y1="1343" x2="614" y2="1343"/><line class="warp" x1="160" y1="1518" x2="614" y2="1518"/><line class="warp" x1="160" y1="1693" x2="614" y2="1693"/><line class="warp" x1="160" y1="1868" x2="614" y2="1868"/><line class="warp" x1="160" y1="2043" x2="614" y2="2043"/><line class="warp" x1="160" y1="2218" x2="614" y2="2218"/><line class="warp" x1="160" y1="2393" x2="614" y2="2393"/><line class="warp" x1="160" y1="2568" x2="614" y2="2568"/><line class="warp" x1="160" y1="2743" x2="614" y2="2743"/><line class="warp" x1="160" y1="2918" x2="614" y2="2918"/><line class="warp" x1="160" y1="3093" x2="614" y2="3093"/><line class="warp" x1="160" y1="3268" x2="614" y2="3268"/><line class="warp" x1="160" y1="3443" x2="614" y2="3443"/><line class="warp" x1="160" y1="3618" x2="614" y2="3618"/><line class="rail" x1="209" y1="118" x2="209" y2="258"/><line class="rail" x1="209" y1="265" x2="209" y2="489"/><line class="rail" x1="299" y1="454" x2="299" y2="650"/><line class="rail" x1="389" y1="482" x2="389" y2="1665"/><line class="rail" x1="209" y1="678" x2="209" y2="1042"/><line class="rail" x1="299" y1="720" x2="299" y2="867"/><line class="rail" x1="209" y1="1140" x2="209" y2="1553"/><line class="rail" x1="299" y1="1189" x2="299" y2="1644"/><line class="rail" x1="209" y1="1672" x2="209" y2="1812"/><line class="rail" x1="209" y1="1819" x2="209" y2="2281"/><line class="rail" x1="299" y1="1826" x2="299" y2="2008"/><line class="rail" x1="299" y1="2015" x2="299" y2="2155"/><line class="rail" x1="299" y1="2239" x2="299" y2="3527"/><line class="rail" x1="389" y1="2260" x2="389" y2="3009"/><line class="rail-hot" x1="209" y1="2295" x2="209" y2="3681"/><line class="rail" x1="479" y1="2302" x2="479" y2="2379"/><line class="rail" x1="479" y1="2386" x2="479" y2="3324"/><line class="rail" x1="569" y1="2400" x2="569" y2="2736"/><line class="rail" x1="389" y1="3086" x2="389" y2="3233"/><text x="4" y="122" class="lab" text-anchor="start">nifty-lantern</text><line class="leader" x1="98" y1="118" x2="146" y2="118"/><line class="leader" x1="146" y1="118" x2="146" y2="118"/><line class="leader" x1="146" y1="118" x2="162" y2="118"/><text x="4" y="269" class="lab" text-anchor="start">ironic-kraken</text><line class="leader" x1="98" y1="265" x2="146" y2="265"/><line class="leader" x1="146" y1="265" x2="146" y2="265"/><line class="leader" x1="146" y1="265" x2="162" y2="265"/><text x="4" y="458" class="lab" text-anchor="start">noble-lobster</text><line class="leader" x1="98" y1="454" x2="146" y2="454"/><line class="leader" x1="146" y1="454" x2="146" y2="454"/><line class="leader" x1="146" y1="454" x2="162" y2="454"/><text x="4" y="486" class="lab" text-anchor="start">stout-domino</text><line class="leader" x1="91" y1="482" x2="146" y2="482"/><line class="leader" x1="146" y1="482" x2="146" y2="482"/><line class="leader" x1="146" y1="482" x2="162" y2="482"/><text x="4" y="682" class="lab" text-anchor="start">wobbly-llama</text><line class="leader" x1="91" y1="678" x2="146" y2="678"/><line class="leader" x1="146" y1="678" x2="146" y2="678"/><line class="leader" x1="146" y1="678" x2="162" y2="678"/><text x="4" y="724" class="lab" text-anchor="start">rusty-xylophone</text><line class="leader" x1="112" y1="720" x2="146" y2="720"/><line class="leader" x1="146" y1="720" x2="146" y2="720"/><line class="leader" x1="146" y1="720" x2="162" y2="720"/><text x="4" y="1144" class="lab" text-anchor="start">moody-igloo</text><line class="leader" x1="84" y1="1140" x2="146" y2="1140"/><line class="leader" x1="146" y1="1140" x2="146" y2="1140"/><line class="leader" x1="146" y1="1140" x2="162" y2="1140"/><text x="4" y="1193" class="lab" text-anchor="start">noble-lighthouse</text><line class="leader" x1="119" y1="1189" x2="146" y2="1189"/><line class="leader" x1="146" y1="1189" x2="146" y2="1189"/><line class="leader" x1="146" y1="1189" x2="162" y2="1189"/><text x="4" y="1676" class="lab" text-anchor="start">rusty-hatchet</text><line class="leader" x1="98" y1="1672" x2="146" y2="1672"/><line class="leader" x1="146" y1="1672" x2="146" y2="1672"/><line class="leader" x1="146" y1="1672" x2="162" y2="1672"/><text x="4" y="1823" class="lab" text-anchor="start">glossy-koala</text><line class="leader" x1="91" y1="1819" x2="146" y2="1819"/><line class="leader" x1="146" y1="1819" x2="146" y2="1819"/><line class="leader" x1="146" y1="1819" x2="162" y2="1819"/><text x="4" y="1838" class="lab" text-anchor="start">rascal-mammoth</text><line class="leader" x1="105" y1="1834" x2="146" y2="1834"/><line class="leader" x1="146" y1="1834" x2="146" y2="1826"/><line class="leader" x1="146" y1="1826" x2="162" y2="1826"/><text x="4" y="2019" class="lab" text-anchor="start">moody-biscuit</text><line class="leader" x1="98" y1="2015" x2="146" y2="2015"/><line class="leader" x1="146" y1="2015" x2="146" y2="2015"/><line class="leader" x1="146" y1="2015" x2="162" y2="2015"/><text x="4" y="2243" class="lab" text-anchor="start">amber-cactus</text><line class="leader" x1="91" y1="2239" x2="146" y2="2239"/><line class="leader" x1="146" y1="2239" x2="146" y2="2239"/><line class="leader" x1="146" y1="2239" x2="162" y2="2239"/><text x="4" y="2264" class="lab" text-anchor="start">quirky-cyclone</text><line class="leader" x1="105" y1="2260" x2="146" y2="2260"/><line class="leader" x1="146" y1="2260" x2="146" y2="2260"/><line class="leader" x1="146" y1="2260" x2="162" y2="2260"/><text x="4" y="2299" class="lab-hot" text-anchor="start">mossy-lantern</text><line class="leader-hot" x1="98" y1="2295" x2="146" y2="2295"/><line class="leader-hot" x1="146" y1="2295" x2="146" y2="2295"/><line class="leader-hot" x1="146" y1="2295" x2="162" y2="2295"/><text x="4" y="2314" class="lab" text-anchor="start">glossy-octopus</text><line class="leader" x1="105" y1="2310" x2="146" y2="2310"/><line class="leader" x1="146" y1="2310" x2="146" y2="2302"/><line class="leader" x1="146" y1="2302" x2="162" y2="2302"/><text x="4" y="2390" class="lab" text-anchor="start">jolly-raccoon</text><line class="leader" x1="98" y1="2386" x2="146" y2="2386"/><line class="leader" x1="146" y1="2386" x2="146" y2="2386"/><line class="leader" x1="146" y1="2386" x2="162" y2="2386"/><text x="4" y="2405" class="lab" text-anchor="start">witty-quartz</text><line class="leader" x1="91" y1="2401" x2="146" y2="2401"/><line class="leader" x1="146" y1="2401" x2="146" y2="2400"/><line class="leader" x1="146" y1="2400" x2="162" y2="2400"/><text x="4" y="3090" class="lab" text-anchor="start">drowsy-pickle</text><line class="leader" x1="98" y1="3086" x2="146" y2="3086"/><line class="leader" x1="146" y1="3086" x2="146" y2="3086"/><line class="leader" x1="146" y1="3086" x2="162" y2="3086"/><text x="209" y="118" class="glyph">·</text><text x="209" y="125" class="glyph">●</text><text x="209" y="132" class="glyph">●</text><text x="209" y="146" class="glyph">·</text><text x="209" y="153" class="glyph">●</text><text x="209" y="160" class="glyph">●</text><text x="209" y="174" class="glyph">·</text><text x="209" y="181" class="glyph">●</text><text x="209" y="188" class="glyph">●</text><text x="209" y="195" class="glyph">●</text><text x="209" y="202" class="glyph">●</text><text x="209" y="209" class="glyph">●</text><text x="209" y="216" class="glyph">●</text><text x="209" y="223" class="glyph">●</text><text x="209" y="230" class="glyph">●</text><text x="209" y="237" class="glyph">●</text><text x="209" y="244" class="glyph">●</text><text x="209" y="251" class="glyph">●</text><text x="209" y="258" class="glyph">●</text><text x="209" y="265" class="glyph">○</text><text x="209" y="272" class="glyph">○</text><text x="209" y="335" class="glyph">●</text><text x="209" y="342" class="glyph">●</text><text x="209" y="363" class="glyph">●</text><text x="209" y="370" class="glyph">●</text><text x="209" y="377" class="glyph">●</text><text x="209" y="384" class="glyph">●</text><text x="209" y="391" class="glyph">●</text><text x="209" y="412" class="glyph">●</text><text x="209" y="419" class="glyph">●</text><text x="209" y="426" class="glyph">●</text><text x="209" y="433" class="glyph">●</text><text x="209" y="440" class="glyph">●</text><text x="209" y="447" class="glyph">●</text><text x="299" y="454" class="glyph">○</text><text x="389" y="482" class="glyph">○</text><text x="209" y="489" class="glyph">○</text><text x="389" y="496" class="glyph">○</text><text x="299" y="503" class="glyph">·</text><text x="299" y="510" class="glyph">●</text><text x="299" y="517" class="glyph">●</text><text x="299" y="552" class="glyph">●</text><text x="299" y="559" class="glyph">●</text><text x="299" y="580" class="glyph">●</text><text x="299" y="587" class="glyph">●</text><text x="299" y="594" class="glyph">●</text><text x="299" y="601" class="glyph">●</text><text x="299" y="608" class="glyph">●</text><text x="299" y="615" class="glyph">●</text><text x="299" y="622" class="glyph">●</text><text x="299" y="629" class="glyph">●</text><text x="299" y="636" class="glyph">●</text><text x="299" y="643" class="glyph">●</text><text x="299" y="650" class="glyph">●</text><text x="209" y="678" class="glyph">·</text><text x="209" y="713" class="glyph">○</text><text x="299" y="720" class="glyph">●</text><text x="299" y="727" class="glyph">●</text><text x="299" y="734" class="glyph">●</text><text x="299" y="755" class="glyph">●</text><text x="299" y="762" class="glyph">●</text><text x="299" y="783" class="glyph">●</text><text x="299" y="790" class="glyph">●</text><text x="299" y="797" class="glyph">●</text><text x="299" y="804" class="glyph">●</text><text x="299" y="811" class="glyph">●</text><text x="299" y="818" class="glyph">●</text><text x="299" y="825" class="glyph">●</text><text x="299" y="832" class="glyph">●</text><text x="209" y="839" class="glyph">·</text><text x="209" y="846" class="glyph">·</text><text x="299" y="853" class="glyph">●</text><text x="299" y="860" class="glyph">●</text><text x="299" y="867" class="glyph">●</text><text x="209" y="874" class="glyph">▽</text><text x="209" y="888" class="glyph">·</text><text x="209" y="895" class="glyph">●</text><text x="209" y="902" class="glyph">●</text><text x="209" y="916" class="glyph">·</text><text x="209" y="923" class="glyph">●</text><text x="209" y="930" class="glyph">●</text><text x="209" y="937" class="glyph">●</text><text x="209" y="944" class="glyph">●</text><text x="209" y="951" class="glyph">●</text><text x="209" y="958" class="glyph">●</text><text x="209" y="965" class="glyph">●</text><text x="209" y="972" class="glyph">●</text><text x="389" y="1000" class="glyph">●</text><text x="389" y="1007" class="glyph">●</text><text x="209" y="1028" class="glyph">●</text><text x="209" y="1035" class="glyph">●</text><text x="209" y="1042" class="glyph">●</text><text x="389" y="1049" class="glyph">●</text><text x="389" y="1056" class="glyph">●</text><text x="389" y="1077" class="glyph">●</text><text x="389" y="1084" class="glyph">●</text><text x="389" y="1105" class="glyph">●</text><text x="389" y="1112" class="glyph">●</text><text x="389" y="1119" class="glyph">●</text><text x="389" y="1126" class="glyph">●</text><text x="389" y="1133" class="glyph">●</text><text x="209" y="1140" class="glyph">○</text><text x="389" y="1147" class="glyph">●</text><text x="389" y="1154" class="glyph">●</text><text x="389" y="1161" class="glyph">●</text><text x="389" y="1168" class="glyph">●</text><text x="389" y="1175" class="glyph">●</text><text x="299" y="1189" class="glyph">○</text><text x="389" y="1196" class="glyph">●</text><text x="389" y="1203" class="glyph">●</text><text x="389" y="1210" class="glyph">●</text><text x="389" y="1217" class="glyph">●</text><text x="389" y="1224" class="glyph">●</text><text x="389" y="1231" class="glyph">●</text><text x="389" y="1238" class="glyph">●</text><text x="389" y="1245" class="glyph">●</text><text x="389" y="1252" class="glyph">●</text><text x="389" y="1259" class="glyph">●</text><text x="389" y="1266" class="glyph">●</text><text x="389" y="1273" class="glyph">●</text><text x="389" y="1280" class="glyph">●</text><text x="389" y="1287" class="glyph">●</text><text x="389" y="1294" class="glyph">●</text><text x="389" y="1301" class="glyph">●</text><text x="389" y="1308" class="glyph">●</text><text x="389" y="1350" class="glyph">●</text><text x="389" y="1357" class="glyph">●</text><text x="389" y="1364" class="glyph">●</text><text x="389" y="1371" class="glyph">●</text><text x="389" y="1378" class="glyph">●</text><text x="389" y="1385" class="glyph">●</text><text x="389" y="1392" class="glyph">●</text><text x="209" y="1413" class="glyph">·</text><text x="209" y="1420" class="glyph">·</text><text x="209" y="1427" class="glyph">●</text><text x="209" y="1434" class="glyph">●</text><text x="209" y="1455" class="glyph">●</text><text x="209" y="1462" class="glyph">●</text><text x="209" y="1483" class="glyph">●</text><text x="209" y="1490" class="glyph">●</text><text x="209" y="1497" class="glyph">●</text><text x="209" y="1504" class="glyph">●</text><text x="209" y="1511" class="glyph">●</text><text x="209" y="1518" class="glyph">●</text><text x="209" y="1525" class="glyph">●</text><text x="209" y="1532" class="glyph">●</text><text x="209" y="1539" class="glyph">●</text><text x="209" y="1546" class="glyph">●</text><text x="209" y="1553" class="glyph">●</text><text x="299" y="1567" class="glyph">●</text><text x="299" y="1574" class="glyph">●</text><text x="299" y="1595" class="glyph">●</text><text x="299" y="1602" class="glyph">●</text><text x="299" y="1609" class="glyph">●</text><text x="299" y="1616" class="glyph">●</text><text x="299" y="1623" class="glyph">●</text><text x="299" y="1637" class="glyph">·</text><text x="299" y="1644" class="glyph">·</text><text x="389" y="1658" class="glyph">⋈</text><text x="389" y="1665" class="glyph">·</text><text x="209" y="1672" class="glyph">○</text><text x="209" y="1679" class="glyph">○</text><text x="209" y="1735" class="glyph">▦</text><text x="209" y="1742" class="glyph">●</text><text x="209" y="1749" class="glyph">●</text><text x="209" y="1756" class="glyph">●</text><text x="209" y="1763" class="glyph">●</text><text x="209" y="1770" class="glyph">●</text><text x="209" y="1777" class="glyph">●</text><text x="209" y="1784" class="glyph">●</text><text x="209" y="1791" class="glyph">●</text><text x="209" y="1798" class="glyph">●</text><text x="209" y="1805" class="glyph">●</text><text x="209" y="1812" class="glyph">●</text><text x="209" y="1819" class="glyph">○</text><text x="299" y="1826" class="glyph">○</text><text x="299" y="1833" class="glyph">○</text><text x="299" y="1861" class="glyph">▦</text><text x="299" y="1882" class="glyph">●</text><text x="299" y="1889" class="glyph">●</text><text x="299" y="1910" class="glyph">●</text><text x="299" y="1917" class="glyph">●</text><text x="299" y="1938" class="glyph">●</text><text x="299" y="1945" class="glyph">●</text><text x="299" y="1952" class="glyph">●</text><text x="299" y="1959" class="glyph">●</text><text x="299" y="1966" class="glyph">●</text><text x="299" y="1973" class="glyph">●</text><text x="299" y="1980" class="glyph">●</text><text x="299" y="1987" class="glyph">●</text><text x="299" y="1994" class="glyph">●</text><text x="299" y="2001" class="glyph">●</text><text x="299" y="2008" class="glyph">●</text><text x="299" y="2015" class="glyph">○</text><text x="299" y="2043" class="glyph">▦</text><text x="299" y="2050" class="glyph">●</text><text x="299" y="2057" class="glyph">●</text><text x="299" y="2078" class="glyph">●</text><text x="299" y="2085" class="glyph">●</text><text x="299" y="2092" class="glyph">●</text><text x="299" y="2099" class="glyph">●</text><text x="299" y="2106" class="glyph">●</text><text x="299" y="2113" class="glyph">●</text><text x="299" y="2120" class="glyph">●</text><text x="299" y="2127" class="glyph">●</text><text x="299" y="2141" class="glyph">●</text><text x="299" y="2148" class="glyph">●</text><text x="299" y="2155" class="glyph">●</text><text x="209" y="2169" class="glyph">●</text><text x="209" y="2176" class="glyph">●</text><text x="209" y="2197" class="glyph">●</text><text x="209" y="2204" class="glyph">●</text><text x="209" y="2211" class="glyph">●</text><text x="209" y="2218" class="glyph">●</text><text x="209" y="2225" class="glyph">●</text><text x="209" y="2232" class="glyph">●</text><text x="299" y="2239" class="glyph">○</text><text x="209" y="2246" class="glyph">●</text><text x="209" y="2253" class="glyph">●</text><text x="389" y="2260" class="glyph">○</text><text x="209" y="2267" class="glyph">●</text><text x="209" y="2274" class="glyph">●</text><text x="209" y="2281" class="glyph">●</text><text x="299" y="2288" class="glyph">○</text><text x="209" y="2295" class="glyph glyph-hot">○</text><text x="479" y="2302" class="glyph">○</text><text x="479" y="2323" class="glyph">·</text><text x="479" y="2344" class="glyph">●</text><text x="479" y="2351" class="glyph">●</text><text x="479" y="2358" class="glyph">●</text><text x="479" y="2365" class="glyph">●</text><text x="479" y="2372" class="glyph">●</text><text x="479" y="2379" class="glyph">●</text><text x="479" y="2386" class="glyph">○</text><text x="479" y="2393" class="glyph">○</text><text x="569" y="2400" class="glyph">○</text><text x="569" y="2477" class="glyph">●</text><text x="569" y="2484" class="glyph">●</text><text x="569" y="2512" class="glyph">●</text><text x="569" y="2519" class="glyph">●</text><text x="569" y="2540" class="glyph">●</text><text x="569" y="2547" class="glyph">●</text><text x="569" y="2568" class="glyph">●</text><text x="569" y="2575" class="glyph">●</text><text x="569" y="2582" class="glyph">●</text><text x="569" y="2589" class="glyph">●</text><text x="569" y="2596" class="glyph">●</text><text x="569" y="2638" class="glyph">●</text><text x="569" y="2645" class="glyph">●</text><text x="569" y="2652" class="glyph">●</text><text x="569" y="2659" class="glyph">●</text><text x="569" y="2666" class="glyph">●</text><text x="569" y="2687" class="glyph">●</text><text x="569" y="2694" class="glyph">●</text><text x="569" y="2701" class="glyph">●</text><text x="569" y="2708" class="glyph">●</text><text x="569" y="2715" class="glyph">●</text><text x="569" y="2722" class="glyph">●</text><text x="569" y="2729" class="glyph">●</text><text x="569" y="2736" class="glyph">●</text><text x="299" y="2799" class="glyph">·</text><text x="389" y="2841" class="glyph">·</text><text x="389" y="2855" class="glyph">·</text><text x="389" y="2869" class="glyph">·</text><text x="389" y="2876" class="glyph">●</text><text x="389" y="2883" class="glyph">●</text><text x="389" y="2897" class="glyph">·</text><text x="389" y="2925" class="glyph">●</text><text x="389" y="2932" class="glyph">●</text><text x="389" y="2939" class="glyph">●</text><text x="389" y="2946" class="glyph">●</text><text x="389" y="2953" class="glyph">●</text><text x="389" y="2967" class="glyph">●</text><text x="389" y="2974" class="glyph">●</text><text x="389" y="2981" class="glyph">●</text><text x="389" y="2988" class="glyph">●</text><text x="389" y="2995" class="glyph">●</text><text x="389" y="3002" class="glyph">●</text><text x="389" y="3009" class="glyph">●</text><text x="479" y="3044" class="glyph">·</text><text x="479" y="3065" class="glyph">●</text><text x="479" y="3072" class="glyph">●</text><text x="389" y="3086" class="glyph">○</text><text x="389" y="3114" class="glyph">●</text><text x="389" y="3121" class="glyph">●</text><text x="389" y="3142" class="glyph">●</text><text x="389" y="3149" class="glyph">●</text><text x="389" y="3170" class="glyph">●</text><text x="389" y="3177" class="glyph">●</text><text x="389" y="3198" class="glyph">●</text><text x="389" y="3205" class="glyph">●</text><text x="389" y="3212" class="glyph">●</text><text x="389" y="3219" class="glyph">●</text><text x="389" y="3226" class="glyph">●</text><text x="389" y="3233" class="glyph">●</text><text x="479" y="3247" class="glyph">●</text><text x="479" y="3254" class="glyph">●</text><text x="479" y="3261" class="glyph">●</text><text x="479" y="3268" class="glyph">●</text><text x="479" y="3275" class="glyph">●</text><text x="479" y="3282" class="glyph">●</text><text x="479" y="3289" class="glyph">●</text><text x="479" y="3296" class="glyph">●</text><text x="479" y="3310" class="glyph">●</text><text x="479" y="3317" class="glyph">●</text><text x="479" y="3324" class="glyph">●</text><text x="299" y="3331" class="glyph">·</text><text x="299" y="3345" class="glyph">●</text><text x="299" y="3352" class="glyph">●</text><text x="299" y="3380" class="glyph">·</text><text x="299" y="3387" class="glyph">●</text><text x="299" y="3394" class="glyph">●</text><text x="299" y="3415" class="glyph">●</text><text x="299" y="3422" class="glyph">●</text><text x="299" y="3429" class="glyph">●</text><text x="299" y="3436" class="glyph">●</text><text x="299" y="3443" class="glyph">●</text><text x="299" y="3457" class="glyph">●</text><text x="299" y="3464" class="glyph">●</text><text x="299" y="3471" class="glyph">●</text><text x="299" y="3478" class="glyph">●</text><text x="299" y="3485" class="glyph">●</text><text x="299" y="3492" class="glyph">●</text><text x="299" y="3499" class="glyph">●</text><text x="299" y="3506" class="glyph">●</text><text x="299" y="3513" class="glyph">●</text><text x="299" y="3520" class="glyph">●</text><text x="299" y="3527" class="glyph">●</text><text x="209" y="3548" class="glyph glyph-hot">●</text><text x="209" y="3555" class="glyph glyph-hot">●</text><text x="209" y="3576" class="glyph glyph-hot">●</text><text x="209" y="3583" class="glyph glyph-hot">●</text><text x="209" y="3604" class="glyph glyph-hot">●</text><text x="209" y="3611" class="glyph glyph-hot">●</text><text x="209" y="3618" class="glyph glyph-hot">●</text><text x="209" y="3625" class="glyph glyph-hot">●</text><text x="209" y="3632" class="glyph glyph-hot">●</text><text x="209" y="3639" class="glyph glyph-hot">●</text><text x="209" y="3646" class="glyph glyph-hot">●</text><text x="209" y="3653" class="glyph glyph-hot">●</text><text x="209" y="3660" class="glyph glyph-hot">●</text><text x="209" y="3667" class="glyph glyph-hot">●</text><text x="209" y="3674" class="glyph glyph-hot">●</text><text x="209" y="3681" class="glyph glyph-hot">●</text><text x="8" y="3728" class="head">EVENT VOCABULARY &#183; ALLOW-LIST</text><text x="8" y="3752" class="glyph">·</text><text x="24" y="3752" class="lab" dominant-baseline="central">other</text><text x="138" y="3752" class="glyph">●</text><text x="154" y="3752" class="lab" dominant-baseline="central">close</text><text x="268" y="3752" class="glyph">○</text><text x="284" y="3752" class="lab" dominant-baseline="central">open</text><text x="398" y="3752" class="glyph">▽</text><text x="414" y="3752" class="lab" dominant-baseline="central">cistern</text><text x="8" y="3774" class="glyph">⋈</text><text x="24" y="3774" class="lab" dominant-baseline="central">merge</text><text x="138" y="3774" class="glyph">▦</text><text x="154" y="3774" class="lab" dominant-baseline="central">mesh</text><text x="8" y="3820" class="lab-hot">followable rail: mossy-lantern &#8594; open to close, one thread through the weave</text></svg>